<?xml version="1.0" encoding="UTF-8" standalone="no"?>
<svg version="1.2" viewBox="0 0 300 300" width="300" height="300"
   xmlns="http://www.w3.org/2000/svg">
  <style
     id="style1">
		.s0 { fill: #808000 }
		.s1 { opacity: .2;fill: #000000 }
		.s2 { fill: #f0f0f0 }
		.s3 { fill: #a0a0a0 }
		.s4 { fill: #ffa500 }
		.s5 { fill: #ffe4c4 }
		.s6 { fill: #438a40 }
		.s7 { fill: #449a40 }
	</style>
  <g
     id="Layer 1">
    <path
       id="Tvar 8"
       fill-rule="evenodd"
       class="s0"
       d="M 150.09101,298.39838 C -2.5225214e-8,298.39838 -2.5225214e-8,298.39838 -2.5225214e-8,148.39917 -2.5225214e-8,-0.54904956 -0.05860642,-0.54904956 149.97379,-0.54904956 c 150.03241,0 150.09102,0 150.09102,148.94821956 0,149.99921 0,149.99921 -149.9738,149.99921 z"
       style="stroke-width:0.584971" />
    <path
       id="Tvar 9"
       fill-rule="evenodd"
       class="s1"
       d="M 45.595785,245.61547 176.40528,386.50611 427.24071,314.1048 278.79069,86.274157"
       style="stroke-width:0.584971" />
    <path
       id="Tvar 3"
       fill-rule="evenodd"
       class="s2"
       d="M 14.18275,126.44522 C -0.35163848,77.866261 70.855147,41.89915 150.67707,43.300465 c 80.70102,1.342928 146.45743,26.274678 135.84966,84.137365 -5.56762,30.42021 -87.73379,88.39968 -136.31851,91.78619 -65.932205,4.55427 -113.462003,-17.45806 -136.02547,-92.7788 z"
       style="stroke-width:0.584971" />
    <path
       id="Tvar 1"
       fill-rule="evenodd"
       class="s3"
       d="m 286.52673,127.32105 c 0.46885,-1.34293 -30.1237,112.514 -32.58517,115.78374 -9.84587,13.13733 -197.620803,15.93995 -208.404382,1.81003 L 13.245048,123.64258 c 24.438871,93.71303 244.740362,92.72042 273.281682,3.67847 z"
       style="stroke-width:0.584971" />
    <path
       id="Tvar 2"
       fill-rule="evenodd"
       class="s4"
       d="m 150.09101,190.67221 c -72.730552,0 -131.571385,-31.0625 -131.571385,-69.48192 0,-38.361034 58.840833,-69.423541 131.571385,-69.423541 72.78916,0 131.62999,31.062507 131.62999,69.423541 0,38.41942 -58.84083,69.48192 -131.62999,69.48192 z"
       style="stroke-width:0.584971" />
    <path
       id="Tvar 4"
       fill-rule="evenodd"
       class="s5"
       d="m 215.96462,93.280739 c -8.55654,-10.626646 -25.08355,4.495889 -43.19293,8.524661 -21.15691,4.67108 -10.72497,18.21712 -39.3249,33.68999 -10.72497,5.78042 -25.90404,34.15707 -29.94788,17.45805 -4.6299,-19.15132 18.40242,-32.69737 32.35075,-42.85691 32.40935,-23.530432 60.42319,-49.221225 97.22803,-24.464642 14.88601,9.984377 -17.93356,43.557572 -24.20445,39.412022 -18.22659,-12.02796 13.01061,-24.34787 7.09138,-31.763171 z"
       style="stroke-width:0.584971" />
    <path
       id="Tvar 5"
       fill-rule="evenodd"
       class="s5"
       d="m 186.30978,107.93617 c -10.60777,-8.816615 -19.80897,29.48602 -20.39505,32.87254 -1.11351,6.94819 3.575,25.45725 16.40981,23.82237 6.32949,-0.81744 0,-5.43011 0.52745,-23.58882 0.35164,-10.04276 17.64052,-21.31167 3.45779,-33.10609 z"
       style="stroke-width:0.584971" />
    <path
       id="Tvar 6"
       fill-rule="evenodd"
       class="s6"
       d="m 97.989913,100.69604 c 3.926627,-3.036189 11.252437,-5.25494 17.816347,-5.780432 0.87909,-0.05839 9.55284,0.525492 9.72867,0 5.45039,-14.538655 -16.05815,-32.697375 -27.31059,-41.16366 -1.523767,-1.167764 -5.977854,-4.495889 -6.915557,-4.495889 -1.113522,0 -4.688512,10.976975 -5.04015,17.691614 -0.234427,4.320725 -0.293034,9.458884 0.586064,13.954773 1.758191,8.583061 5.274576,14.480267 11.135216,19.793594 z"
       style="stroke-width:0.584971" />
    <path
       id="Tvar 7"
       fill-rule="evenodd"
       class="s7"
       d="m 90.839931,115.29308 c 0,-6.65626 5.743429,-12.43668 10.197509,-16.582242 0.58606,-0.525492 6.56392,-4.554277 6.44671,-5.079772 C 104.55382,78.274979 85.155111,71.618729 71.441212,68.348991 69.389987,67.823497 57.785919,65.663134 56.848216,66.071851 c -1.113522,0.583883 2.051224,20.43586 3.399172,23.88076 1.992617,5.021385 4.981543,9.692437 8.380716,13.837999 6.505311,7.76564 14.475782,12.96216 22.211827,11.50247 z"
       style="stroke-width:0.584971" />
  </g>
</svg>
